<?xml version="1.0" standalone="no"?>
<!DOCTYPE svg PUBLIC "-//W3C//DTD SVG 20010904//EN"
 "http://www.w3.org/TR/2001/REC-SVG-20010904/DTD/svg10.dtd">
<svg version="1.0" xmlns="http://www.w3.org/2000/svg"
 width="32.000000pt" height="32.000000pt" viewBox="0 0 32.000000 32.000000"
 preserveAspectRatio="xMidYMid meet">

<g transform="translate(0.000000,32.000000) scale(0.100000,-0.100000)"
fill="#000000" stroke="none">
<path d="M93 289 c-46 -22 -83 -82 -83 -132 0 -42 24 -90 59 -120 27 -22 42
-27 87 -27 100 0 154 51 154 146 0 62 -29 111 -80 136 -46 24 -86 23 -137 -3z
m134 -8 c49 -23 73 -62 73 -121 0 -37 -23 -100 -36 -100 -3 0 -2 5 2 11 5 8
-4 10 -28 7 -34 -4 -34 -3 -24 24 7 20 7 31 -1 39 -9 9 -11 7 -6 -10 13 -50
-59 -83 -104 -47 -20 15 -25 16 -21 5 4 -11 0 -15 -15 -14 -15 1 -26 13 -36
38 -25 67 8 144 73 173 42 18 74 17 123 -5z"/>
<path d="M174 258 c-4 -7 -3 -8 5 -4 6 4 20 2 29 -6 15 -12 16 -11 3 5 -16 20
-27 22 -37 5z"/>
<path d="M168 133 c21 -8 3 -23 -29 -23 -20 0 -28 4 -23 12 4 7 3 8 -5 4 -6
-4 -9 -12 -6 -17 9 -14 61 -11 74 4 11 15 5 28 -13 26 -6 0 -5 -3 2 -6z"/>
</g>
</svg>
