<?xml version="1.0" standalone="no"?>
<!DOCTYPE svg PUBLIC "-//W3C//DTD SVG 20010904//EN"
 "http://www.w3.org/TR/2001/REC-SVG-20010904/DTD/svg10.dtd">
<svg version="1.0" xmlns="http://www.w3.org/2000/svg"
 width="105.000000pt" height="105.000000pt" viewBox="0 0 105.000000 105.000000"
 preserveAspectRatio="xMidYMid meet">

<g transform="translate(0.000000,105.000000) scale(0.100000,-0.100000)"
fill="#000000" stroke="none">
<path d="M431 1009 c-25 -5 -78 -24 -119 -44 -208 -98 -325 -347 -267 -568 59
-227 262 -387 490 -387 321 0 570 316 490 623 -69 266 -326 429 -594 376z
m234 -21 c127 -32 252 -137 310 -260 56 -119 64 -220 29 -348 l-16 -55 -166 1
c-164 1 -166 1 -185 -23 -32 -40 -93 -65 -177 -70 -75 -6 -77 -5 -113 26 -20
18 -39 41 -42 52 -4 12 -13 18 -21 15 -7 -3 -16 -1 -19 4 -3 4 -24 6 -47 3
-23 -2 -45 -5 -48 -5 -3 0 -24 0 -47 1 -37 1 -42 4 -53 34 -59 164 -10 369
119 498 124 124 302 171 476 127z"/>
<path d="M384 329 l-29 -6 30 -7 c17 -4 36 -10 43 -12 21 -6 94 8 85 16 -11
11 -93 16 -129 9z"/>
</g>
</svg>
